<svg xmlns="http://www.w3.org/2000/svg" viewBox="0 0 595 595">
  <!-- Background rounded square (squircle) -->
  <rect width="595" height="595" rx="120" fill="#7A1C2E"/>
  
  <!-- Centered white Lotus + e Logo (Scaled to 70% for padding) -->
  <g transform="translate(89, 122) scale(0.7)">
    <path fill="#FFFFFF" fill-rule="evenodd" d="M 365 374 L 362 374 L 359 377 L 359 378 L 352 385 L 352 386 L 345 393 L 344 393 L 336 401 L 335 401 L 332 404 L 331 404 L 328 407 L 327 407 L 324 410 L 323 410 L 321 412 L 320 412 L 317 415 L 316 415 L 315 416 L 314 416 L 312 418 L 311 418 L 309 420 L 308 420 L 306 422 L 305 422 L 304 423 L 303 423 L 301 425 L 301 427 L 302 428 L 306 428 L 307 427 L 309 427 L 310 426 L 311 426 L 312 425 L 313 425 L 314 424 L 315 424 L 316 423 L 317 423 L 318 422 L 319 422 L 320 421 L 321 421 L 323 419 L 324 419 L 326 417 L 327 417 L 329 415 L 330 415 L 333 412 L 334 412 L 337 409 L 338 409 L 356 391 L 356 390 L 359 387 L 359 386 L 361 384 L 361 383 L 363 381 L 363 380 L 365 378 Z M 10 385 L 61 431 L 122 458 L 193 464 L 248 448 L 192 453 L 130 445 L 79 424 L 33 388 L 74 371 L 120 369 L 163 407 L 227 423 L 164 392 L 130 358 L 103 305 L 92 244 L 134 249 L 180 268 L 198 282 L 209 312 L 212 254 L 228 202 L 257 154 L 297 111 L 340 156 L 366 200 L 383 256 L 385 312 L 397 281 L 413 269 L 461 249 L 502 244 L 493 298 L 469 350 L 435 361 L 423 373 L 454 371 L 407 410 L 342 434 L 409 423 L 447 399 L 476 367 L 524 373 L 562 390 L 506 441 L 450 468 L 378 477 L 320 460 L 277 418 L 260 365 L 261 340 L 323 318 L 351 286 L 351 263 L 339 247 L 299 240 L 273 252 L 250 276 L 229 338 L 242 407 L 276 451 L 311 473 L 351 486 L 439 485 L 524 447 L 584 387 L 545 364 L 485 352 L 510 290 L 517 227 L 455 235 L 398 262 L 365 165 L 298 90 L 231 163 L 211 204 L 197 262 L 143 236 L 77 227 L 83 290 L 110 353 L 51 362 Z M 321 253 L 327 259 L 327 260 L 328 261 L 328 262 L 329 263 L 329 264 L 330 265 L 330 270 L 331 271 L 331 278 L 330 279 L 330 283 L 329 284 L 329 286 L 328 287 L 328 289 L 327 290 L 327 291 L 326 292 L 326 293 L 325 294 L 325 295 L 324 296 L 324 297 L 321 300 L 321 301 L 309 313 L 308 313 L 305 316 L 304 316 L 302 318 L 301 318 L 300 319 L 299 319 L 297 321 L 296 321 L 295 322 L 294 322 L 293 323 L 292 323 L 291 324 L 290 324 L 289 325 L 287 325 L 286 326 L 285 326 L 284 327 L 282 327 L 281 328 L 279 328 L 278 329 L 275 329 L 274 330 L 271 330 L 270 331 L 266 331 L 265 332 L 262 332 L 261 331 L 261 323 L 262 322 L 262 317 L 263 316 L 263 313 L 264 312 L 264 309 L 265 308 L 265 306 L 266 305 L 266 302 L 267 301 L 267 299 L 268 298 L 268 296 L 269 295 L 269 293 L 270 292 L 270 291 L 271 290 L 271 288 L 272 287 L 272 286 L 273 285 L 273 284 L 274 283 L 274 282 L 275 281 L 275 280 L 276 279 L 276 278 L 277 277 L 277 276 L 279 274 L 279 273 L 281 271 L 281 270 L 283 268 L 283 267 L 287 263 L 287 262 L 288 261 L 289 261 L 294 256 L 295 256 L 297 254 L 298 254 L 299 253 L 300 253 L 301 252 L 302 252 L 303 251 L 305 251 L 306 250 L 315 250 L 316 251 L 318 251 L 320 253 Z M 293 52 L 292 53 L 291 53 L 286 58 L 286 60 L 285 61 L 285 66 L 286 67 L 286 69 L 287 70 L 287 71 L 290 74 L 291 74 L 292 75 L 296 75 L 297 76 L 298 75 L 302 75 L 304 73 L 305 73 L 307 71 L 307 70 L 308 69 L 308 68 L 309 67 L 309 61 L 308 60 L 308 58 L 307 57 L 307 56 L 306 55 L 305 55 L 302 52 Z M 297 10 L 296 11 L 293 11 L 292 12 L 291 12 L 286 17 L 286 19 L 285 20 L 285 25 L 286 26 L 286 28 L 287 29 L 287 30 L 289 32 L 290 32 L 291 33 L 292 33 L 293 34 L 295 34 L 296 35 L 299 35 L 300 34 L 301 34 L 302 33 L 303 33 L 304 32 L 305 32 L 307 30 L 307 29 L 308 28 L 308 27 L 309 26 L 309 19 L 308 18 L 308 17 L 307 16 L 307 15 L 304 12 L 303 12 L 302 11 L 298 11 Z"/>
  </g>
</svg>
